<svg viewBox="0 0 240 120" fill="none" xmlns="http://www.w3.org/2000/svg">
<path d="M111.606 102.948C85.9585 105.741 25.9585 90.8937 0 120.001H240V81.0443C185.907 69.5779 140.357 99.817 111.606 102.948Z" fill="url(#paint0_radial_947_15149)"/>
<path d="M111.606 102.948C85.9585 105.741 25.9585 90.8937 0 120.001H240V81.0443C185.907 69.5779 140.357 99.817 111.606 102.948Z" fill="url(#paint1_radial_947_15149)"/>
<path d="M111.606 102.948C85.9585 105.741 25.9585 90.8937 0 120.001H240V81.0443C185.907 69.5779 140.357 99.817 111.606 102.948Z" fill="url(#paint2_radial_947_15149)"/>
<path d="M220.549 99.1607H186.485V55.267C186.485 53.6288 187.808 52.2972 189.446 52.2972L196.952 53.6853C200.139 54.2744 203.392 54.3389 206.604 53.8789L217.579 52.2972C219.217 52.2972 220.549 53.6288 220.549 55.267V99.1607Z" fill="url(#paint3_linear_947_15149)"/>
<path d="M220.549 99.1607H186.485V55.267C186.485 53.6288 187.808 52.2972 189.446 52.2972L196.952 53.6853C200.139 54.2744 203.392 54.3389 206.604 53.8789L217.579 52.2972C219.217 52.2972 220.549 53.6288 220.549 55.267V99.1607Z" fill="url(#paint4_linear_947_15149)"/>
<path d="M207.346 42.0877C207.645 42.9673 207.895 43.8389 208.065 44.7024C208.379 46.381 207.435 49.0281 206.741 50.6502C206.378 51.5056 205.547 52.0624 204.619 52.0705L201.463 52.0947C200.471 52.1028 199.559 51.5217 199.147 50.6259C198.122 48.3905 196.839 45.3884 196.839 42.8786C196.839 42.7252 196.847 42.5719 196.855 42.4266C196.863 42.2168 196.887 42.0151 196.912 41.8133C196.936 41.6116 196.968 41.4179 196.992 41.2242C197.057 40.8368 197.146 40.4656 197.242 40.1105C197.444 39.3923 197.694 38.7305 197.977 38.1252C198.049 37.9719 198.122 37.8266 198.203 37.6814C198.283 37.5361 198.356 37.3908 198.437 37.2537C198.606 36.9873 198.76 36.7291 198.937 36.487C199.276 36.0028 199.639 35.5751 200.019 35.1958C200.204 35.0021 200.406 34.8326 200.6 34.6631C200.793 34.5017 200.995 34.3484 201.197 34.2031C201.407 34.0659 201.608 33.9368 201.818 33.8158C201.915 33.7512 202.028 33.7028 202.133 33.6463C202.238 33.5898 202.343 33.5333 202.448 33.4849C202.658 33.388 202.875 33.2993 203.093 33.2186L203.352 33.1298C203.4 33.1137 203.44 33.0975 203.481 33.0814L203.747 33.0007L203.699 33.8238C203.682 34.0901 203.682 34.3645 203.674 34.6228C203.666 34.881 203.666 35.1473 203.666 35.3975C203.666 35.6477 203.682 35.8979 203.691 36.148C203.715 36.6403 203.771 37.1084 203.844 37.5603C203.916 38.0042 204.013 38.4238 204.142 38.8112C204.199 38.9726 204.255 39.134 204.32 39.2793C204.344 39.3438 204.376 39.4003 204.401 39.4568L204.489 39.6182C204.538 39.6989 204.578 39.7796 204.627 39.8603C204.82 40.167 205.038 40.4333 205.264 40.6512C205.369 40.7561 205.49 40.853 205.595 40.9256C205.643 40.9659 205.7 41.0063 205.756 41.0386L205.91 41.1193C206.12 41.2161 206.297 41.2565 206.442 41.2403C206.588 41.2242 206.693 41.1516 206.765 41.0628C206.806 41.0224 206.846 41.0386 206.902 41.0951C206.951 41.1516 207.015 41.2645 207.088 41.434C207.169 41.6035 207.249 41.8214 207.346 42.0877Z" fill="url(#paint5_radial_947_15149)"/>
<path d="M184.268 104.093C181.131 104.093 179.87 100.046 182.453 98.2645L189.288 93.5504C191.284 92.1742 193.926 92.1886 195.906 93.5865L199.241 95.9408C201.961 97.8608 205.374 98.5234 208.615 97.7608L212.716 96.7959C213.841 96.5311 215.013 96.5311 216.138 96.7959L221.583 98.077C223.499 98.5277 224.492 100.648 223.612 102.408C223.095 103.441 222.04 104.093 220.885 104.093H184.268Z" fill="url(#paint6_linear_947_15149)"/>
<path d="M184.268 104.093C181.131 104.093 179.87 100.046 182.453 98.2645L189.288 93.5504C191.284 92.1742 193.926 92.1886 195.906 93.5865L199.241 95.9408C201.961 97.8608 205.374 98.5234 208.615 97.7608L212.716 96.7959C213.841 96.5311 215.013 96.5311 216.138 96.7959L221.583 98.077C223.499 98.5277 224.492 100.648 223.612 102.408C223.095 103.441 222.04 104.093 220.885 104.093H184.268Z" fill="url(#paint7_linear_947_15149)"/>
<path d="M83.1303 107.189L73.8292 53.7071L83.9421 39.0464L86.3777 36.8215C98.1937 36.8045 108.701 39.0372 118.111 42.5219L128.729 100.149L122.825 101.237C113.482 100.102 89.1269 104.501 83.1303 107.189Z" fill="url(#paint8_linear_947_15149)"/>
<path d="M173.467 90.5139L164.166 40.0322L149.492 29.9384L146.424 28.7276C135.377 32.9229 125.286 35.9508 117.737 42.5603L128.354 100.188L134.258 99.1C142.583 94.7098 166.906 90.1395 173.467 90.5139Z" fill="url(#paint9_linear_947_15149)"/>
<path d="M75.4904 43.5964C75.4904 43.5964 100.924 31.3025 117.349 39.4789L128.11 97.8864C103.816 96.1471 86.2703 102.104 86.2703 102.104L75.4904 43.5964C75.4855 43.5975 75.4873 43.5961 75.4904 43.5964Z" fill="url(#paint10_linear_947_15149)"/>
<path d="M157.911 28.41C157.911 28.41 129.766 25.9878 117.334 39.481L128.096 97.8885C150.175 87.6051 168.691 86.9179 168.691 86.9179L157.911 28.41C157.916 28.4093 157.914 28.4087 157.911 28.41Z" fill="url(#paint11_linear_947_15149)"/>
<path d="M78.3175 39.5036C78.3175 39.5036 100.957 31.2762 117.386 39.4558L128.152 97.885C107.774 93.8219 89.1015 98.0332 89.1015 98.0332L78.3175 39.5036C78.3127 39.5048 78.3144 39.5034 78.3175 39.5036Z" fill="url(#paint12_linear_947_15149)"/>
<path d="M153.838 25.5916C153.838 25.5916 129.753 25.9729 117.317 39.4708L128.083 97.9C145.675 86.8411 164.622 84.1212 164.622 84.1212L153.838 25.5916C153.843 25.5909 153.84 25.5903 153.838 25.5916Z" fill="url(#paint13_linear_947_15149)"/>
<path d="M81.1159 35.4775C81.1159 35.4775 100.96 31.3197 117.394 39.4921L128.153 97.8879C110.576 90.7406 91.8937 93.9736 91.8937 93.9736L81.1159 35.4775C81.1111 35.4786 81.1128 35.4772 81.1159 35.4775Z" fill="url(#paint14_linear_947_15149)"/>
<path d="M149.812 22.8033C149.812 22.8033 129.789 25.9909 117.347 39.4837L128.107 97.8795C141.982 84.9369 160.59 81.2995 160.59 81.2995L149.812 22.8033C149.817 22.8027 149.815 22.802 149.812 22.8033Z" fill="url(#paint15_linear_947_15149)"/>
<path d="M149.812 22.8033C149.812 22.8033 129.789 25.9909 117.347 39.4837L128.107 97.8795C141.982 84.9369 160.59 81.2995 160.59 81.2995L149.812 22.8033C149.817 22.8027 149.815 22.802 149.812 22.8033Z" fill="url(#paint16_linear_947_15149)"/>
<path fill-rule="evenodd" clip-rule="evenodd" d="M146.302 31.658C146.383 32.0642 146.12 32.4593 145.714 32.5405C142.066 33.27 137.641 35.1075 133.551 37.3385C129.459 39.5701 125.777 42.1552 123.597 44.3354C123.304 44.6283 122.829 44.6283 122.536 44.3354C122.243 44.0425 122.243 43.5676 122.536 43.2748C124.856 40.955 128.674 38.29 132.832 36.0217C136.992 33.7527 141.567 31.8402 145.419 31.0697C145.826 30.9884 146.221 31.2518 146.302 31.658Z" fill="#B1B1B1"/>
<path fill-rule="evenodd" clip-rule="evenodd" d="M86.8703 42.0923C86.9534 42.498 87.3497 42.7596 87.7555 42.6765C91.3994 41.93 96.1911 41.9017 100.827 42.3663C105.464 42.8311 109.862 43.7805 112.718 44.9411C113.102 45.0971 113.54 44.9124 113.695 44.5286C113.851 44.1449 113.667 43.7074 113.283 43.5515C110.244 42.3166 105.69 41.3462 100.976 40.8738C96.2617 40.4013 91.3035 40.4185 87.4545 41.207C87.0487 41.2901 86.7871 41.6865 86.8703 42.0923Z" fill="#777777"/>
<path fill-rule="evenodd" clip-rule="evenodd" d="M147.058 36.9608C147.139 37.3669 146.876 37.762 146.47 37.8433C142.822 38.5727 138.397 40.4103 134.307 42.6413C130.215 44.8729 126.533 47.4579 124.353 49.6381C124.06 49.931 123.585 49.931 123.292 49.6381C122.999 49.3453 122.999 48.8704 123.292 48.5775C125.612 46.2577 129.43 43.5928 133.588 41.3244C137.748 39.0554 142.323 37.1429 146.175 36.3724C146.582 36.2912 146.977 36.5546 147.058 36.9608Z" fill="#B1B1B1"/>
<path fill-rule="evenodd" clip-rule="evenodd" d="M88.2348 47.2722C88.318 47.678 88.7143 47.9395 89.1201 47.8564C92.764 47.1099 97.5557 47.0816 102.191 47.5462C106.829 48.011 111.226 48.9604 114.083 50.1211C114.467 50.277 114.904 50.0923 115.06 49.7085C115.216 49.3248 115.031 48.8873 114.647 48.7314C111.608 47.4965 107.055 46.5261 102.341 46.0537C97.6262 45.5812 92.6681 45.5984 88.819 46.3869C88.4133 46.47 88.1517 46.8664 88.2348 47.2722Z" fill="#777777"/>
<path fill-rule="evenodd" clip-rule="evenodd" d="M147.69 42.2646C147.771 42.6708 147.508 43.0659 147.102 43.1471C143.454 43.8766 139.029 45.7141 134.939 47.9451C130.848 50.1767 127.165 52.7618 124.985 54.942C124.692 55.2349 124.217 55.2349 123.924 54.942C123.632 54.6491 123.632 54.1742 123.924 53.8813C126.244 51.5616 130.062 48.8966 134.221 46.6283C138.38 44.3593 142.955 42.4468 146.808 41.6763C147.214 41.595 147.609 41.8584 147.69 42.2646Z" fill="#B1B1B1"/>
<path fill-rule="evenodd" clip-rule="evenodd" d="M89.7154 52.4036C89.7986 52.8094 90.1949 53.071 90.6007 52.9879C94.2446 52.2414 99.0363 52.2131 103.672 52.6777C108.309 53.1424 112.707 54.0919 115.563 55.2525C115.947 55.4084 116.385 55.2238 116.541 54.84C116.697 54.4563 116.512 54.0188 116.128 53.8629C113.089 52.6279 108.535 51.6576 103.822 51.1852C99.1069 50.7127 94.1487 50.7299 90.2997 51.5184C89.8939 51.6015 89.6323 51.9978 89.7154 52.4036Z" fill="#777777"/>
<path fill-rule="evenodd" clip-rule="evenodd" d="M148.572 47.5674C148.654 47.9735 148.39 48.3686 147.984 48.4499C144.337 49.1793 139.911 51.0169 135.821 53.2478C131.73 55.4795 128.048 58.0645 125.867 60.2447C125.574 60.5376 125.1 60.5376 124.807 60.2447C124.514 59.9518 124.514 59.477 124.807 59.1841C127.126 56.8643 130.944 54.1994 135.103 51.931C139.263 49.662 143.837 47.7495 147.69 46.979C148.096 46.8978 148.491 47.1612 148.572 47.5674Z" fill="#B1B1B1"/>
<path fill-rule="evenodd" clip-rule="evenodd" d="M90.9639 57.6331C91.0471 58.0389 91.4434 58.3005 91.8492 58.2173C95.4931 57.4709 100.285 57.4426 104.921 57.9072C109.558 58.3719 113.955 59.3214 116.812 60.482C117.196 60.6379 117.633 60.4532 117.789 60.0695C117.945 59.6858 117.76 59.2483 117.377 59.0923C114.337 57.8574 109.784 56.8871 105.07 56.4147C100.355 55.9421 95.3972 55.9594 91.5482 56.7479C91.1424 56.831 90.8808 57.2273 90.9639 57.6331Z" fill="#777777"/>
<path fill-rule="evenodd" clip-rule="evenodd" d="M149.554 52.8712C149.635 53.2774 149.372 53.6725 148.966 53.7537C145.318 54.4832 140.893 56.3207 136.803 58.5517C132.711 60.7833 129.029 63.3684 126.849 65.5486C126.556 65.8415 126.081 65.8415 125.788 65.5486C125.495 65.2557 125.495 64.7808 125.788 64.4879C128.108 62.1682 131.926 59.5032 136.084 57.2349C140.244 54.9659 144.819 53.0534 148.671 52.2829C149.078 52.2016 149.473 52.465 149.554 52.8712Z" fill="#B1B1B1"/>
<path fill-rule="evenodd" clip-rule="evenodd" d="M92.1223 62.8998C92.2054 63.3056 92.6018 63.5672 93.0076 63.484C96.6514 62.7375 101.443 62.7093 106.079 63.1739C110.716 63.6386 115.114 64.588 117.97 65.7487C118.354 65.9046 118.792 65.7199 118.947 65.3362C119.103 64.9524 118.919 64.5149 118.535 64.359C115.496 63.1241 110.942 62.1537 106.229 61.6813C101.514 61.2088 96.5555 61.226 92.7065 62.0145C92.3007 62.0977 92.0392 62.494 92.1223 62.8998Z" fill="#777777"/>
<path fill-rule="evenodd" clip-rule="evenodd" d="M150.787 58.1728C150.868 58.579 150.604 58.9741 150.198 59.0553C146.551 59.7848 142.125 61.6223 138.035 63.8533C133.944 66.0849 130.262 68.67 128.082 70.8502C127.789 71.1431 127.314 71.1431 127.021 70.8502C126.728 70.5573 126.728 70.0824 127.021 69.7896C129.341 67.4698 133.158 64.8048 137.317 62.5365C141.477 60.2675 146.051 58.355 149.904 57.5845C150.31 57.5032 150.705 57.7667 150.787 58.1728Z" fill="#B1B1B1"/>
<path fill-rule="evenodd" clip-rule="evenodd" d="M93.0497 68.2656C93.1328 68.6714 93.5291 68.933 93.9349 68.8499C97.5788 68.1034 102.37 68.0751 107.006 68.5397C111.643 69.0044 116.041 69.9539 118.898 71.1145C119.281 71.2704 119.719 71.0858 119.875 70.702C120.031 70.3183 119.846 69.8808 119.462 69.7249C116.423 68.4899 111.869 67.5196 107.156 67.0472C102.441 66.5747 97.4829 66.5919 93.6339 67.3804C93.2281 67.4635 92.9665 67.8599 93.0497 68.2656Z" fill="#777777"/>
<path fill-rule="evenodd" clip-rule="evenodd" d="M151.797 63.6029C151.879 64.0091 151.615 64.4042 151.209 64.4854C147.562 65.2149 143.136 67.0524 139.046 69.2834C134.955 71.515 131.273 74.1 129.092 76.2803C128.799 76.5732 128.325 76.5732 128.032 76.2803C127.739 75.9874 127.739 75.5125 128.032 75.2196C130.351 72.8999 134.169 70.2349 138.328 67.9665C142.488 65.6975 147.062 63.7851 150.915 63.0145C151.321 62.9333 151.716 63.1967 151.797 63.6029Z" fill="#B1B1B1"/>
<path fill-rule="evenodd" clip-rule="evenodd" d="M94.2305 73.6596C94.3137 74.0654 94.71 74.327 95.1158 74.2439C98.7597 73.4974 103.551 73.4691 108.187 73.9337C112.824 74.3985 117.222 75.3479 120.079 76.5085C120.462 76.6644 120.9 76.4798 121.056 76.096C121.212 75.7123 121.027 75.2748 120.643 75.1189C117.604 73.8839 113.05 72.9136 108.337 72.4412C103.622 71.9687 98.6638 71.9859 94.8148 72.7744C94.409 72.8575 94.1474 73.2539 94.2305 73.6596Z" fill="#777777"/>
<path fill-rule="evenodd" clip-rule="evenodd" d="M153.312 69.1591C153.393 69.5653 153.13 69.9604 152.723 70.0417C149.076 70.7711 144.651 72.6087 140.56 74.8396C136.469 77.0713 132.787 79.6563 130.607 81.8365C130.314 82.1294 129.839 82.1294 129.546 81.8365C129.253 81.5436 129.253 81.0688 129.546 80.7759C131.866 78.4561 135.684 75.7912 139.842 73.5228C144.002 71.2538 148.577 69.3413 152.429 68.5708C152.835 68.4896 153.231 68.753 153.312 69.1591Z" fill="#B1B1B1"/>
<path fill-rule="evenodd" clip-rule="evenodd" d="M154.183 74.6309C154.264 75.0371 154.001 75.4322 153.594 75.5134C149.947 76.2429 145.522 78.0804 141.431 80.3114C137.34 82.543 133.658 85.1281 131.478 87.3083C131.185 87.6012 130.71 87.6012 130.417 87.3083C130.124 87.0154 130.124 86.5405 130.417 86.2476C132.737 83.9279 136.555 81.2629 140.713 78.9946C144.873 76.7256 149.448 74.8131 153.3 74.0426C153.706 73.9613 154.102 74.2247 154.183 74.6309Z" fill="#B1B1B1"/>
<path fill-rule="evenodd" clip-rule="evenodd" d="M94.9956 79.3669C95.0788 79.7727 95.4751 80.0343 95.8809 79.9511C99.5248 79.2046 104.316 79.1764 108.952 79.641C113.589 80.1057 117.987 81.0551 120.844 82.2158C121.227 82.3717 121.665 82.187 121.821 81.8033C121.977 81.4195 121.792 80.982 121.408 80.8261C118.369 79.5912 113.815 78.6208 109.102 78.1484C104.387 77.6759 99.4289 77.6931 95.5799 78.4816C95.1741 78.5648 94.9125 78.9611 94.9956 79.3669Z" fill="#777777"/>
<path fill-rule="evenodd" clip-rule="evenodd" d="M96.2408 85.3367C96.3239 85.7425 96.7202 86.0041 97.126 85.9209C100.77 85.1744 105.562 85.1462 110.197 85.6108C114.835 86.0755 119.232 87.0249 122.089 88.1856C122.473 88.3415 122.91 88.1568 123.066 87.7731C123.222 87.3893 123.037 86.9518 122.653 86.7959C119.614 85.561 115.06 84.5906 110.347 84.1183C105.632 83.6457 100.674 83.6629 96.825 84.4514C96.4192 84.5346 96.1576 84.9309 96.2408 85.3367Z" fill="#777777"/>
<path d="M87.7674 43.2401V41.95L52.5274 49.1345L67.5738 18.6815H66.2326L46.0739 52.7281L37.3581 48.6914L28.4507 33.7283V34.8519L34.6246 47.3878L11.7486 36.9833V38.3971C11.7486 38.3971 30.687 46.982 36.5913 52.0804L15.8145 58.7489L16.8063 59.7622C16.8063 59.7622 35.4141 56.354 40.9967 55.3353C44.0366 57.8296 45.9987 60.1492 46.0256 61.9957C46.2621 77.8592 39.9699 112.207 39.9699 112.207C39.9699 112.207 46.6391 114.159 51.0005 114C54.563 113.87 59.9512 112.207 59.9512 112.207C56.0834 99.0634 54.1051 51.8223 54.1051 51.8223L87.7674 43.2401Z" fill="url(#paint17_radial_947_15149)"/>
<path d="M87.7674 43.2401V41.95L52.5274 49.1345L67.5738 18.6815H66.2326L46.0739 52.7281L37.3581 48.6914L28.4507 33.7283V34.8519L34.6246 47.3878L11.7486 36.9833V38.3971C11.7486 38.3971 30.687 46.982 36.5913 52.0804L15.8145 58.7489L16.8063 59.7622C16.8063 59.7622 35.4141 56.354 40.9967 55.3353C44.0366 57.8296 45.9987 60.1492 46.0256 61.9957C46.2621 77.8592 39.9699 112.207 39.9699 112.207C39.9699 112.207 46.6391 114.159 51.0005 114C54.563 113.87 59.9512 112.207 59.9512 112.207C56.0834 99.0634 54.1051 51.8223 54.1051 51.8223L87.7674 43.2401Z" fill="url(#paint18_radial_947_15149)"/>
<path d="M87.7674 43.2401V41.95L52.5274 49.1345L67.5738 18.6815H66.2326L46.0739 52.7281L37.3581 48.6914L28.4507 33.7283V34.8519L34.6246 47.3878L11.7486 36.9833V38.3971C11.7486 38.3971 30.687 46.982 36.5913 52.0804L15.8145 58.7489L16.8063 59.7622C16.8063 59.7622 35.4141 56.354 40.9967 55.3353C44.0366 57.8296 45.9987 60.1492 46.0256 61.9957C46.2621 77.8592 39.9699 112.207 39.9699 112.207C39.9699 112.207 46.6391 114.159 51.0005 114C54.563 113.87 59.9512 112.207 59.9512 112.207C56.0834 99.0634 54.1051 51.8223 54.1051 51.8223L87.7674 43.2401Z" fill="url(#paint19_linear_947_15149)"/>
<path d="M61.6227 22.6156C61.6227 22.6156 62.6307 18.3339 60.5369 15.6703C58.4431 13.0174 54.0431 12.9879 54.0431 12.9879C54.0431 12.9879 53.0486 17.2695 55.137 19.9251C57.2335 22.5807 61.6227 22.6156 61.6227 22.6156Z" fill="url(#paint20_linear_947_15149)"/>
<path d="M73.4678 13.0227C75.0482 10.0338 73.2769 5.99939 73.2769 5.99939C73.2769 5.99939 68.9657 6.82724 67.3745 9.81609C65.8021 12.8103 67.5653 16.834 67.5653 16.834C67.5653 16.834 71.8873 16.0115 73.4678 13.0227Z" fill="url(#paint21_linear_947_15149)"/>
<path d="M22.2183 44.7884C22.2183 44.7884 19.0521 43.8557 16.9717 45.3125C14.8967 46.7639 14.6951 50.07 14.6951 50.07C14.6951 50.07 17.8506 50.9946 19.931 49.5378C22.0087 48.0783 22.2183 44.7884 22.2183 44.7884Z" fill="url(#paint22_linear_947_15149)"/>
<path d="M19.5032 40.0279C19.5032 40.0279 18.928 35.6656 16.0224 33.9212C13.1223 32.1795 8.99918 33.7196 8.99918 33.7196C8.99918 33.7196 9.58512 38.0712 12.4826 39.8182C15.3854 41.56 19.5032 40.0279 19.5032 40.0279Z" fill="url(#paint23_linear_947_15149)"/>
<path d="M30.6517 28.8143C31.0333 26.5055 28.9933 24.2423 28.9933 24.2423C28.9933 24.2423 26.3458 25.7233 25.9614 28.0322C25.5798 30.3302 27.6091 32.5934 27.6091 32.5934C27.6091 32.5934 30.2673 31.1151 30.6517 28.8143Z" fill="url(#paint24_linear_947_15149)"/>
<path d="M15.7582 65.8998C15.3766 68.2032 17.4059 70.4664 17.4059 70.4664C17.4059 70.4664 20.0561 68.9854 20.4485 66.6819C20.8355 64.3785 18.7955 62.1153 18.7955 62.1153C18.7955 62.1153 16.1453 63.5963 15.7582 65.8998Z" fill="url(#paint25_linear_947_15149)"/>
<path d="M9.39785 58.0514C7.09976 58.4331 5.61877 61.0833 5.61877 61.0833C5.61877 61.0833 7.87385 63.1153 10.1827 62.7363C12.4861 62.3546 13.9671 59.699 13.9671 59.699C13.9671 59.699 11.7121 57.6697 9.39785 58.0514Z" fill="url(#paint26_linear_947_15149)"/>
<path d="M71.5432 20.0845C69.2559 20.5737 67.9039 23.2883 67.9039 23.2883C67.9039 23.2883 70.2665 25.2155 72.5431 24.7317C74.8385 24.2425 76.1878 21.5198 76.1878 21.5198C76.1878 21.5198 73.8306 19.598 71.5432 20.0845Z" fill="url(#paint27_linear_947_15149)"/>
<path d="M54.3092 29.5294C56.5912 29.0349 57.9485 26.3121 57.9485 26.3121C57.9485 26.3121 55.5967 24.393 53.304 24.8822C51.022 25.3741 49.67 28.0861 49.67 28.0861C49.67 28.0861 52.0246 30.0132 54.3092 29.5294Z" fill="url(#paint28_linear_947_15149)"/>
<path d="M94.8335 37.5124C91.5221 38.1789 89.5036 42.0817 89.5036 42.0817C89.5036 42.0817 92.8741 44.92 96.1855 44.2588C99.4996 43.5922 101.518 39.6787 101.518 39.6787C101.518 39.6787 98.1584 36.8565 94.8335 37.5124Z" fill="url(#paint29_linear_947_15149)"/>
<path d="M87.0666 48.325C84.3062 46.3924 80.0971 47.6288 80.0971 47.6288C80.0971 47.6288 80.3632 52.018 83.1236 53.9613C85.9028 55.9046 90.1227 54.6575 90.1227 54.6575C90.1227 54.6575 89.8458 50.2763 87.0666 48.325Z" fill="url(#paint30_linear_947_15149)"/>
<defs>
<radialGradient id="paint0_radial_947_15149" cx="0" cy="0" r="1" gradientUnits="userSpaceOnUse" gradientTransform="translate(36.0622 100.706) rotate(-2.30746) scale(56.1595 31.5942)">
<stop stop-color="#F8CD38"/>
<stop offset="1" stop-color="#4C8828"/>
</radialGradient>
<radialGradient id="paint1_radial_947_15149" cx="0" cy="0" r="1" gradientUnits="userSpaceOnUse" gradientTransform="translate(169.585 81.4116) rotate(170.933) scale(62.1758 35.0302)">
<stop stop-color="#F8CD38"/>
<stop offset="1" stop-color="#F8CD38" stop-opacity="0"/>
</radialGradient>
<radialGradient id="paint2_radial_947_15149" cx="0" cy="0" r="1" gradientUnits="userSpaceOnUse" gradientTransform="translate(145.5 108.04) rotate(178.208) scale(46.5227 4.81796)">
<stop stop-color="#316C0D"/>
<stop offset="1" stop-color="#326910" stop-opacity="0"/>
</radialGradient>
<linearGradient id="paint3_linear_947_15149" x1="186.485" y1="52.2972" x2="221.296" y2="87.5745" gradientUnits="userSpaceOnUse">
<stop stop-color="#E8D876"/>
<stop offset="1" stop-color="#D62626"/>
</linearGradient>
<linearGradient id="paint4_linear_947_15149" x1="195.221" y1="65.9124" x2="218.615" y2="60.0028" gradientUnits="userSpaceOnUse">
<stop stop-color="#E8D876"/>
<stop offset="1" stop-color="#E2992B"/>
</linearGradient>
<radialGradient id="paint5_radial_947_15149" cx="0" cy="0" r="1" gradientUnits="userSpaceOnUse" gradientTransform="translate(200.45 37.9871) rotate(69.8516) scale(12.4231 12.4554)">
<stop stop-color="#FFF14D"/>
<stop offset="1" stop-color="#EB5339"/>
</radialGradient>
<linearGradient id="paint6_linear_947_15149" x1="181.701" y1="98.9596" x2="182.34" y2="106.533" gradientUnits="userSpaceOnUse">
<stop stop-color="#E8D876"/>
<stop offset="1" stop-color="#D62626"/>
</linearGradient>
<linearGradient id="paint7_linear_947_15149" x1="192.892" y1="100.451" x2="196.17" y2="90.7691" gradientUnits="userSpaceOnUse">
<stop stop-color="#E8D876"/>
<stop offset="1" stop-color="#BD770E"/>
</linearGradient>
<linearGradient id="paint8_linear_947_15149" x1="119.891" y1="101.586" x2="95.5101" y2="44.3031" gradientUnits="userSpaceOnUse">
<stop stop-color="#BB331E"/>
<stop offset="1" stop-color="#FEBA37"/>
</linearGradient>
<linearGradient id="paint9_linear_947_15149" x1="137.123" y1="98.3803" x2="139.487" y2="36.1698" gradientUnits="userSpaceOnUse">
<stop stop-color="#BB331E"/>
<stop offset="1" stop-color="#FEBA37"/>
</linearGradient>
<linearGradient id="paint10_linear_947_15149" x1="86.4255" y1="39.0584" x2="138.253" y2="78.8357" gradientUnits="userSpaceOnUse">
<stop stop-color="#C2C2C2"/>
<stop offset="0.989824" stop-color="#595959"/>
</linearGradient>
<linearGradient id="paint11_linear_947_15149" x1="146.077" y1="28.0673" x2="111.829" y2="83.7038" gradientUnits="userSpaceOnUse">
<stop stop-color="#C2C2C2"/>
<stop offset="0.989824" stop-color="#595959"/>
</linearGradient>
<linearGradient id="paint12_linear_947_15149" x1="88.6293" y1="36.8883" x2="141.147" y2="72.6801" gradientUnits="userSpaceOnUse">
<stop stop-color="#E2E2E2"/>
<stop offset="0.989824" stop-color="#959191"/>
</linearGradient>
<linearGradient id="paint13_linear_947_15149" x1="143.271" y1="26.8227" x2="106.958" y2="78.9812" gradientUnits="userSpaceOnUse">
<stop stop-color="#E2E2E2"/>
<stop offset="0.989824" stop-color="#959191"/>
</linearGradient>
<linearGradient id="paint14_linear_947_15149" x1="90.6083" y1="33.7251" x2="143.658" y2="64.8714" gradientUnits="userSpaceOnUse">
<stop stop-color="#D4D4D4"/>
<stop offset="0.989824" stop-color="#B8B6B6"/>
</linearGradient>
<linearGradient id="paint15_linear_947_15149" x1="140.318" y1="24.5487" x2="101.853" y2="72.5565" gradientUnits="userSpaceOnUse">
<stop stop-color="#EEEEEE"/>
<stop offset="0.1375" stop-color="#EEEEEE"/>
<stop offset="1" stop-color="#D3D3D3"/>
</linearGradient>
<linearGradient id="paint16_linear_947_15149" x1="140.318" y1="24.5487" x2="101.398" y2="70.8607" gradientUnits="userSpaceOnUse">
<stop stop-color="#EEEEEE"/>
<stop offset="1" stop-color="#DADADA"/>
</linearGradient>
<radialGradient id="paint17_radial_947_15149" cx="0" cy="0" r="1" gradientUnits="userSpaceOnUse" gradientTransform="translate(40.3301 73.2332) rotate(-43.3345) scale(71.5306 94.6554)">
<stop stop-color="#D2A687"/>
<stop offset="1" stop-color="#DDA37B"/>
</radialGradient>
<radialGradient id="paint18_radial_947_15149" cx="0" cy="0" r="1" gradientUnits="userSpaceOnUse" gradientTransform="translate(42.0005 48) rotate(90.8425) scale(102.011 13.5742)">
<stop stop-color="#D2A687" stop-opacity="0"/>
<stop offset="1" stop-color="#AB7B5A"/>
</radialGradient>
<linearGradient id="paint19_linear_947_15149" x1="46.1533" y1="124.615" x2="67.5638" y2="124.261" gradientUnits="userSpaceOnUse">
<stop stop-color="#73492C" stop-opacity="0"/>
<stop offset="1" stop-color="#AD6C3F"/>
</linearGradient>
<linearGradient id="paint20_linear_947_15149" x1="53.8065" y1="12.9879" x2="64.078" y2="18.469" gradientUnits="userSpaceOnUse">
<stop stop-color="#8FDC50"/>
<stop offset="1" stop-color="#4FB918"/>
</linearGradient>
<linearGradient id="paint21_linear_947_15149" x1="66.7219" y1="5.99939" x2="76.9102" y2="10.4368" gradientUnits="userSpaceOnUse">
<stop stop-color="#8FDC50"/>
<stop offset="1" stop-color="#4FB918"/>
</linearGradient>
<linearGradient id="paint22_linear_947_15149" x1="14.6951" y1="44.4944" x2="22.0775" y2="50.5315" gradientUnits="userSpaceOnUse">
<stop stop-color="#8FDC50"/>
<stop offset="1" stop-color="#4FB918"/>
</linearGradient>
<linearGradient id="paint23_linear_947_15149" x1="19.5032" y1="40.6507" x2="13.4662" y2="30.448" gradientUnits="userSpaceOnUse">
<stop stop-color="#68E978"/>
<stop offset="1" stop-color="#34A117"/>
</linearGradient>
<linearGradient id="paint24_linear_947_15149" x1="25.9136" y1="24.2423" x2="32.8274" y2="26.7682" gradientUnits="userSpaceOnUse">
<stop stop-color="#8FDC50"/>
<stop offset="1" stop-color="#4FB918"/>
</linearGradient>
<linearGradient id="paint25_linear_947_15149" x1="15.7104" y1="62.1153" x2="22.6256" y2="64.6424" gradientUnits="userSpaceOnUse">
<stop stop-color="#8FDC50"/>
<stop offset="1" stop-color="#4FB918"/>
</linearGradient>
<linearGradient id="paint26_linear_947_15149" x1="13.9671" y1="62.7834" x2="10.611" y2="55.6536" gradientUnits="userSpaceOnUse">
<stop stop-color="#68E978"/>
<stop offset="1" stop-color="#34A117"/>
</linearGradient>
<linearGradient id="paint27_linear_947_15149" x1="76.1878" y1="24.8096" x2="72.787" y2="17.6773" gradientUnits="userSpaceOnUse">
<stop stop-color="#68E978"/>
<stop offset="1" stop-color="#34A117"/>
</linearGradient>
<linearGradient id="paint28_linear_947_15149" x1="57.9485" y1="29.6074" x2="54.5453" y2="22.4759" gradientUnits="userSpaceOnUse">
<stop stop-color="#68E978"/>
<stop offset="1" stop-color="#34A117"/>
</linearGradient>
<linearGradient id="paint29_linear_947_15149" x1="101.518" y1="44.3587" x2="96.6118" y2="34.0352" gradientUnits="userSpaceOnUse">
<stop stop-color="#0B7418"/>
<stop offset="1" stop-color="#34A117"/>
</linearGradient>
<linearGradient id="paint30_linear_947_15149" x1="90.1227" y1="55.0515" x2="83.6567" y2="44.9588" gradientUnits="userSpaceOnUse">
<stop stop-color="#0B7418"/>
<stop offset="1" stop-color="#34A117"/>
</linearGradient>
</defs>
</svg>
