<svg width="16" height="17" viewBox="0 0 16 17" fill="none" xmlns="http://www.w3.org/2000/svg">
    <path d="M9.2125 3C9.2125 2.17157 8.55769 1.5 7.75 1.5C6.94228 1.5 6.2875 2.17157 6.2875 3H5.3125C5.3125 1.61929 6.40381 0.5 7.75 0.5C9.09618 0.5 10.1875 1.61929 10.1875 3H14.575C14.8442 3 15.0625 3.22386 15.0625 3.5C15.0625 3.77614 14.8442 4 14.575 4H14.0348L12.7712 15.2292C12.6577 16.2384 11.8245 17 10.834 17H4.66596C3.67548 17 2.84234 16.2384 2.72881 15.2292L1.46417 4H0.925C0.685677 4 0.48663 3.82312 0.445358 3.58988L0.4375 3.5C0.4375 3.22386 0.655764 3 0.925 3H9.2125ZM13.052 4H2.44697L3.69738 15.1146C3.75415 15.6192 4.17072 16 4.66596 16H10.834C11.3293 16 11.7458 15.6192 11.8026 15.1146L13.052 4ZM6.2875 6.5C6.52682 6.5 6.72587 6.65477 6.76714 6.85886L6.775 6.9375V13.0625C6.775 13.3041 6.55674 13.5 6.2875 13.5C6.04818 13.5 5.84913 13.3452 5.80786 13.1411L5.8 13.0625V6.9375C5.8 6.69588 6.01826 6.5 6.2875 6.5ZM9.2125 6.5C9.45186 6.5 9.65086 6.65477 9.6921 6.85886L9.7 6.9375V13.0625C9.7 13.3041 9.4817 13.5 9.2125 13.5C8.97314 13.5 8.77414 13.3452 8.7329 13.1411L8.725 13.0625V6.9375C8.725 6.69588 8.9433 6.5 9.2125 6.5Z" fill="white"/>
</svg>

