<?xml version="1.0" encoding="UTF-8" standalone="no"?>
<!-- Uploaded to: SVG Repo, www.svgrepo.com, Transformed by: SVG Repo Mixer Tools -->

<svg
   version="1.1"
   id="Layer_1"
   viewBox="0 0 496 496"
   xml:space="preserve"
   width="800px"
   height="800px"
   fill="#000000"
   sodipodi:docname="slot-machine-svgrepo-com.svg"
   inkscape:version="1.3.1 (9b9bdc1480, 2023-11-25, custom)"
   xmlns:inkscape="http://www.inkscape.org/namespaces/inkscape"
   xmlns:sodipodi="http://sodipodi.sourceforge.net/DTD/sodipodi-0.dtd"
   xmlns="http://www.w3.org/2000/svg"
   xmlns:svg="http://www.w3.org/2000/svg"><defs
   id="defs27"><inkscape:path-effect
   effect="powerclip"
   id="path-effect32"
   is_visible="true"
   lpeversion="1"
   inverse="true"
   flatten="false"
   hide_clip="false"
   message="Use fill-rule evenodd on &lt;b&gt;fill and stroke&lt;/b&gt; dialog if no flatten result after convert clip to paths." />                            <filter
   id="mask-powermask-path-effect30_inverse"
   inkscape:label="filtermask-powermask-path-effect30"
   style="color-interpolation-filters:sRGB"
   height="100"
   width="100"
   x="-50"
   y="-50"><feColorMatrix
     id="mask-powermask-path-effect30_primitive1"
     values="1"
     type="saturate"
     result="fbSourceGraphic" /><feColorMatrix
     id="mask-powermask-path-effect30_primitive2"
     values="-1 0 0 0 1 0 -1 0 0 1 0 0 -1 0 1 0 0 0 1 0 "
     in="fbSourceGraphic" /></filter><clipPath
   clipPathUnits="userSpaceOnUse"
   id="clipPath31"><path
     style="display:none;fill:#d6d5cc;stroke-width:0.999998"
     d="m 456,260.8 c 0,8.8 -4,11.2 -12,11.2 H 52 c -8,0 -12,-3.2 -12,-11.2 V 123.2 c 0,-8 4,-19.2 12,-19.2 h 392 c 8.8,0 12,10.4 12,19.2 z"
     id="path32" /><path
     id="lpe_path-effect32"
     style="fill:#d6d5cc;stroke-width:0.999998"
     class="powerclip"
     d="M -5,59 H 501 V 325 H -5 Z M 456,260.8 V 123.2 C 456,114.4 452.8,104 444,104 H 52 c -8,0 -12,11.2 -12,19.2 v 137.6 c 0,8 4,11.2 12,11.2 h 392 c 8,0 12,-2.4 12,-11.2 z" /></clipPath></defs><sodipodi:namedview
   id="namedview27"
   pagecolor="#ffffff"
   bordercolor="#000000"
   borderopacity="0.25"
   inkscape:showpageshadow="2"
   inkscape:pageopacity="0.0"
   inkscape:pagecheckerboard="0"
   inkscape:deskcolor="#d1d1d1"
   inkscape:zoom="0.79019183"
   inkscape:cx="315.11336"
   inkscape:cy="370.79604"
   inkscape:window-width="1872"
   inkscape:window-height="1136"
   inkscape:window-x="48"
   inkscape:window-y="27"
   inkscape:window-maximized="1"
   inkscape:current-layer="Layer_1" />

<g
   id="SVGRepo_bgCarrier"
   stroke-width="0" />

<g
   id="SVGRepo_tracerCarrier"
   stroke-linecap="round"
   stroke-linejoin="round" />

<rect
   y="288"
   style="fill:#009aaf"
   width="496"
   height="200"
   id="rect1"
   x="0" /><g
   id="g1"> <polyline
   style="fill:#006884"
   points="0,288 496,288 496,488 "
   id="polyline1" /> <path
   style="fill:#006884"
   d="M 416,123.2 C 416,168.8 357.6,208 312.8,208 H 183.2 C 138.4,208 80,168.8 80,123.2 v -36 C 80,41.6 138.4,8 183.2,8 H 312 c 45.6,0 104,33.6 104,79.2 z"
   id="path1" /> </g><path
   style="fill:#d6d5cc"
   d="m 456,260.8 c 0,8.8 -4,11.2 -12,11.2 H 52 c -8,0 -12,-3.2 -12,-11.2 V 123.2 c 0,-8 4,-19.2 12,-19.2 h 392 c 8.8,0 12,10.4 12,19.2 z"
   id="path4" /><path
   style="fill:#f4f2e4"
   d="m 456,259.2 c 0,8.8 -4,12.8 -12,12.8 H 52 c -8,0 -12,-4 -12,-12.8 V 146.4 C 40,136.8 44,128 52,128 h 392 c 8.8,0 12,8.8 12,18.4 z"
   id="path5" /><g
   id="g28"><g
     id="g31"
     clip-path="url(#clipPath31)"
     inkscape:path-effect="#path-effect32"><path
       style="fill:#07bed6"
       d="m 496,296.8 c 0,12.8 -11.2,23.2 -24,23.2 H 24 C 11.2,320 0,309.6 0,296.8 V 86.4 C 0,73.6 11.2,64 24,64 h 448 c 12.8,0 24,9.6 24,22.4 z"
       id="path2"
       inkscape:original-d="m 496,296.8 c 0,12.8 -11.2,23.2 -24,23.2 H 24 C 11.2,320 0,309.6 0,296.8 V 86.4 C 0,73.6 11.2,64 24,64 h 448 c 12.8,0 24,9.6 24,22.4 z" /><path
       style="fill:#009aaf"
       d="M 0,86.4 C 0,73.6 11.2,64 24,64 h 448 c 12.8,0 24,9.6 24,22.4 v 210.4 c 0,12.8 -11.2,23.2 -24,23.2"
       id="path3"
       inkscape:original-d="M 0,86.4 C 0,73.6 11.2,64 24,64 h 448 c 12.8,0 24,9.6 24,22.4 v 210.4 c 0,12.8 -11.2,23.2 -24,23.2" /></g><path
     style="fill:#009aaf"
     d="m 184,286.4 c 0,4 -4,7.2 -8,7.2 v 0 c -4,0 -8,-3.2 -8,-7.2 V 104 c 0,-4 4,-7.2 8,-7.2 v 0 c 4,0 8,3.2 8,7.2 z"
     id="path18" /><path
     style="fill:#009aaf"
     d="m 328,286.4 c 0,4 -4,7.2 -8,7.2 v 0 c -4,0 -8,-3.2 -8,-7.2 V 104 c 0,-4 4,-7.2 8,-7.2 v 0 c 4,0 8,3.2 8,7.2 z"
     id="path19" /></g><ellipse
   transform="rotate(-115.64514)"
   style="fill:#009aaf;stroke-width:1.00001"
   cx="-92.626541"
   cy="116.95241"
   rx="8.8000793"
   ry="37.600338"
   id="ellipse19" /><g
   id="g24"> <circle
   style="fill:#006884"
   cx="50.400002"
   cy="362.39999"
   r="12.8"
   id="circle22" /> <circle
   style="fill:#006884"
   cx="50.400002"
   cy="407.20001"
   r="12.8"
   id="circle23" /> <circle
   style="fill:#006884"
   cx="50.400002"
   cy="452"
   r="12.8"
   id="circle24" /> </g><g
   id="g27"> <circle
   style="fill:#009aaf"
   cx="445.60001"
   cy="362.39999"
   r="12.8"
   id="circle25" /> <circle
   style="fill:#009aaf"
   cx="445.60001"
   cy="407.20001"
   r="12.8"
   id="circle26" /> <circle
   style="fill:#009aaf"
   cx="445.60001"
   cy="452"
   r="12.8"
   id="circle27" /> </g>

</svg>
