<?xml version="1.0" encoding="UTF-8" standalone="no"?>
<!-- Created with Inkscape (http://www.inkscape.org/) -->

<svg
   width="68.306mm"
   height="104.633mm"
   viewBox="0 0 68.306001 104.633"
   version="1.1"
   id="svg1"
   sodipodi:docname="spin-stick.svg"
   inkscape:version="1.3.1 (9b9bdc1480, 2023-11-25, custom)"
   preserveAspectRatio="none"
   xmlns:inkscape="http://www.inkscape.org/namespaces/inkscape"
   xmlns:sodipodi="http://sodipodi.sourceforge.net/DTD/sodipodi-0.dtd"
   xmlns="http://www.w3.org/2000/svg"
   xmlns:svg="http://www.w3.org/2000/svg">
  <sodipodi:namedview
     id="namedview1"
     pagecolor="#ffffff"
     bordercolor="#000000"
     borderopacity="0.25"
     inkscape:showpageshadow="2"
     inkscape:pageopacity="0.0"
     inkscape:pagecheckerboard="0"
     inkscape:deskcolor="#d1d1d1"
     inkscape:document-units="mm"
     inkscape:zoom="0.79642256"
     inkscape:cx="396.7743"
     inkscape:cy="360.36146"
     inkscape:window-width="1872"
     inkscape:window-height="1136"
     inkscape:window-x="48"
     inkscape:window-y="27"
     inkscape:window-maximized="1"
     inkscape:current-layer="layer1"
     showgrid="false" />
  <defs
     id="defs1" />
  <g
     inkscape:label="Layer 1"
     inkscape:groupmode="layer"
     id="layer1">
    <g
       id="g1"
       transform="translate(0,-50.526887)">
      <rect
         x="33.824814"
         y="60.768826"
         style="fill:#4c5254;stroke-width:0.793345"
         width="13.655914"
         height="94.391212"
         id="rect19" />
      <polyline
         style="fill:#202d2a"
         points="232,424 264,424 264,480 "
         id="polyline19"
         transform="matrix(0.42674731,0,0,1.4748626,-65.180557,-564.57291)" />
      <path
         style="fill:#f9b843;stroke-width:0.426747"
         d="m 58.746866,57.354836 c 0,3.413982 -2.731191,6.827961 -5.803772,6.827961 H 28.703847 c -3.072576,0 -5.803759,-3.413979 -5.803759,-6.827961 v 0 c 0,-3.072577 2.731183,-6.827949 5.803759,-6.827949 h 24.239247 c 3.072581,0 5.803772,3.755372 5.803772,6.827949 z"
         id="path21" />
      <path
         style="fill:#e88813;stroke-width:0.426747"
         d="m 58.746866,58.037636 v 0 c 0,3.413982 -2.731191,6.145161 -5.803772,6.145161 H 28.703847 c -3.072576,0 -5.803759,-2.731179 -5.803759,-6.145161 v 0"
         id="path22" />
    </g>
  </g>
</svg>
