<svg viewBox="0 0 240 120" fill="none" xmlns="http://www.w3.org/2000/svg">
  <path fill-rule="evenodd" clip-rule="evenodd" d="M33.9311 74.3029C33.9632 72.041 36.9337 71.2289 38.112 73.1599L40.916 77.7549C41.3196 78.4164 42.0346 78.8243 42.8095 78.8353L48.1705 78.9113C50.4324 78.9433 51.2445 81.9138 49.3135 83.0922L44.7351 85.886C44.0736 86.2897 43.6656 87.0047 43.6546 87.7795L43.5783 93.1665C43.5463 95.4284 40.5758 96.2405 39.3974 94.3095L36.5972 89.7206C36.1935 89.0591 35.4785 88.6511 34.7036 88.6401L29.3083 88.5637C27.0464 88.5316 26.2343 85.5611 28.1653 84.3828L32.7745 81.5701C33.436 81.1665 33.844 80.4515 33.855 79.6766L33.9311 74.3029Z" fill="url(#paint0_linear_1826_182983)"/>
  <path fill-rule="evenodd" clip-rule="evenodd" d="M33.9311 74.3029C33.9632 72.041 36.9337 71.2289 38.112 73.1599L40.916 77.7549C41.3196 78.4164 42.0346 78.8243 42.8095 78.8353L48.1705 78.9113C50.4324 78.9433 51.2445 81.9138 49.3135 83.0922L44.7351 85.886C44.0736 86.2897 43.6656 87.0047 43.6546 87.7795L43.5783 93.1665C43.5463 95.4284 40.5758 96.2405 39.3974 94.3095L36.5972 89.7206C36.1935 89.0591 35.4785 88.6511 34.7036 88.6401L29.3083 88.5637C27.0464 88.5316 26.2343 85.5611 28.1653 84.3828L32.7745 81.5701C33.436 81.1665 33.844 80.4515 33.855 79.6766L33.9311 74.3029Z" fill="#00AEEF"/>
  <circle r="6" transform="matrix(1 0 0 -1 201 88.8066)" fill="#8DC63F"/>
  <circle cx="146" cy="30" r="6" fill="#F26522"/>
  <path d="M91.4722 27.8487C93.371 22.7171 100.629 22.7171 102.528 27.8486L108.238 43.2798C108.835 44.8931 110.107 46.1652 111.72 46.7621L127.151 52.4722C132.283 54.371 132.283 61.629 127.151 63.5278L111.72 69.2379C110.107 69.8348 108.835 71.1069 108.238 72.7202L102.528 88.1513C100.629 93.2829 93.371 93.2829 91.4722 88.1514L85.7621 72.7202C85.1652 71.1069 83.8931 69.8348 82.2798 69.2379L66.8487 63.5278C61.7171 61.629 61.7171 54.371 66.8486 52.4722L82.2798 46.7621C83.8931 46.1652 85.1652 44.8931 85.7621 43.2798L91.4722 27.8487Z" fill="url(#paint1_linear_1826_182983)"/>
  <path d="M91.4722 27.8487C93.371 22.7171 100.629 22.7171 102.528 27.8486L108.238 43.2798C108.835 44.8931 110.107 46.1652 111.72 46.7621L127.151 52.4722C132.283 54.371 132.283 61.629 127.151 63.5278L111.72 69.2379C110.107 69.8348 108.835 71.1069 108.238 72.7202L102.528 88.1513C100.629 93.2829 93.371 93.2829 91.4722 88.1514L85.7621 72.7202C85.1652 71.1069 83.8931 69.8348 82.2798 69.2379L66.8487 63.5278C61.7171 61.629 61.7171 54.371 66.8486 52.4722L82.2798 46.7621C83.8931 46.1652 85.1652 44.8931 85.7621 43.2798L91.4722 27.8487Z" fill="url(#paint2_radial_1826_182983)"/>
  <path d="M91.4722 27.8487C93.371 22.7171 100.629 22.7171 102.528 27.8486L108.238 43.2798C108.835 44.8931 110.107 46.1652 111.72 46.7621L127.151 52.4722C132.283 54.371 132.283 61.629 127.151 63.5278L111.72 69.2379C110.107 69.8348 108.835 71.1069 108.238 72.7202L102.528 88.1513C100.629 93.2829 93.371 93.2829 91.4722 88.1514L85.7621 72.7202C85.1652 71.1069 83.8931 69.8348 82.2798 69.2379L66.8487 63.5278C61.7171 61.629 61.7171 54.371 66.8486 52.4722L82.2798 46.7621C83.8931 46.1652 85.1652 44.8931 85.7621 43.2798L91.4722 27.8487Z" fill="url(#paint3_radial_1826_182983)"/>
  <path d="M91.4722 27.8487C93.371 22.7171 100.629 22.7171 102.528 27.8486L108.238 43.2798C108.835 44.8931 110.107 46.1652 111.72 46.7621L127.151 52.4722C132.283 54.371 132.283 61.629 127.151 63.5278L111.72 69.2379C110.107 69.8348 108.835 71.1069 108.238 72.7202L102.528 88.1513C100.629 93.2829 93.371 93.2829 91.4722 88.1514L85.7621 72.7202C85.1652 71.1069 83.8931 69.8348 82.2798 69.2379L66.8487 63.5278C61.7171 61.629 61.7171 54.371 66.8486 52.4722L82.2798 46.7621C83.8931 46.1652 85.1652 44.8931 85.7621 43.2798L91.4722 27.8487Z" fill="url(#paint4_radial_1826_182983)"/>
  <path d="M91.4722 27.8487C93.371 22.7171 100.629 22.7171 102.528 27.8486L108.238 43.2798C108.835 44.8931 110.107 46.1652 111.72 46.7621L127.151 52.4722C132.283 54.371 132.283 61.629 127.151 63.5278L111.72 69.2379C110.107 69.8348 108.835 71.1069 108.238 72.7202L102.528 88.1513C100.629 93.2829 93.371 93.2829 91.4722 88.1514L85.7621 72.7202C85.1652 71.1069 83.8931 69.8348 82.2798 69.2379L66.8487 63.5278C61.7171 61.629 61.7171 54.371 66.8486 52.4722L82.2798 46.7621C83.8931 46.1652 85.1652 44.8931 85.7621 43.2798L91.4722 27.8487Z" fill="url(#paint5_radial_1826_182983)"/>
  <path d="M91.4722 27.8487C93.371 22.7171 100.629 22.7171 102.528 27.8486L108.238 43.2798C108.835 44.8931 110.107 46.1652 111.72 46.7621L127.151 52.4722C132.283 54.371 132.283 61.629 127.151 63.5278L111.72 69.2379C110.107 69.8348 108.835 71.1069 108.238 72.7202L102.528 88.1513C100.629 93.2829 93.371 93.2829 91.4722 88.1514L85.7621 72.7202C85.1652 71.1069 83.8931 69.8348 82.2798 69.2379L66.8487 63.5278C61.7171 61.629 61.7171 54.371 66.8486 52.4722L82.2798 46.7621C83.8931 46.1652 85.1652 44.8931 85.7621 43.2798L91.4722 27.8487Z" fill="url(#paint6_radial_1826_182983)"/>
  <path d="M162.399 55.8111C163.292 53.3963 166.708 53.3963 167.601 55.8111L170.288 63.0728C170.569 63.8321 171.168 64.4307 171.927 64.7116L179.189 67.3987C181.604 68.2922 181.604 71.7078 179.189 72.6013L171.927 75.2884C171.168 75.5693 170.569 76.1679 170.288 76.9271L167.601 84.1889C166.708 86.6037 163.292 86.6037 162.399 84.1889L159.712 76.9271C159.431 76.1679 158.832 75.5693 158.073 75.2884L150.811 72.6013C148.396 71.7078 148.396 68.2922 150.811 67.3987L158.073 64.7116C158.832 64.4307 159.431 63.8321 159.712 63.0729L162.399 55.8111Z" fill="url(#paint7_linear_1826_182983)"/>
  <path d="M162.399 55.8111C163.292 53.3963 166.708 53.3963 167.601 55.8111L170.288 63.0728C170.569 63.8321 171.168 64.4307 171.927 64.7116L179.189 67.3987C181.604 68.2922 181.604 71.7078 179.189 72.6013L171.927 75.2884C171.168 75.5693 170.569 76.1679 170.288 76.9271L167.601 84.1889C166.708 86.6037 163.292 86.6037 162.399 84.1889L159.712 76.9271C159.431 76.1679 158.832 75.5693 158.073 75.2884L150.811 72.6013C148.396 71.7078 148.396 68.2922 150.811 67.3987L158.073 64.7116C158.832 64.4307 159.431 63.8321 159.712 63.0729L162.399 55.8111Z" fill="url(#paint8_radial_1826_182983)"/>
  <path d="M162.399 55.8111C163.292 53.3963 166.708 53.3963 167.601 55.8111L170.288 63.0728C170.569 63.8321 171.168 64.4307 171.927 64.7116L179.189 67.3987C181.604 68.2922 181.604 71.7078 179.189 72.6013L171.927 75.2884C171.168 75.5693 170.569 76.1679 170.288 76.9271L167.601 84.1889C166.708 86.6037 163.292 86.6037 162.399 84.1889L159.712 76.9271C159.431 76.1679 158.832 75.5693 158.073 75.2884L150.811 72.6013C148.396 71.7078 148.396 68.2922 150.811 67.3987L158.073 64.7116C158.832 64.4307 159.431 63.8321 159.712 63.0729L162.399 55.8111Z" fill="url(#paint9_radial_1826_182983)"/>
  <path d="M162.399 55.8111C163.292 53.3963 166.708 53.3963 167.601 55.8111L170.288 63.0728C170.569 63.8321 171.168 64.4307 171.927 64.7116L179.189 67.3987C181.604 68.2922 181.604 71.7078 179.189 72.6013L171.927 75.2884C171.168 75.5693 170.569 76.1679 170.288 76.9271L167.601 84.1889C166.708 86.6037 163.292 86.6037 162.399 84.1889L159.712 76.9271C159.431 76.1679 158.832 75.5693 158.073 75.2884L150.811 72.6013C148.396 71.7078 148.396 68.2922 150.811 67.3987L158.073 64.7116C158.832 64.4307 159.431 63.8321 159.712 63.0729L162.399 55.8111Z" fill="url(#paint10_radial_1826_182983)"/>
  <path d="M162.399 55.8111C163.292 53.3963 166.708 53.3963 167.601 55.8111L170.288 63.0728C170.569 63.8321 171.168 64.4307 171.927 64.7116L179.189 67.3987C181.604 68.2922 181.604 71.7078 179.189 72.6013L171.927 75.2884C171.168 75.5693 170.569 76.1679 170.288 76.9271L167.601 84.1889C166.708 86.6037 163.292 86.6037 162.399 84.1889L159.712 76.9271C159.431 76.1679 158.832 75.5693 158.073 75.2884L150.811 72.6013C148.396 71.7078 148.396 68.2922 150.811 67.3987L158.073 64.7116C158.832 64.4307 159.431 63.8321 159.712 63.0729L162.399 55.8111Z" fill="url(#paint11_radial_1826_182983)"/>
  <path d="M162.399 55.8111C163.292 53.3963 166.708 53.3963 167.601 55.8111L170.288 63.0728C170.569 63.8321 171.168 64.4307 171.927 64.7116L179.189 67.3987C181.604 68.2922 181.604 71.7078 179.189 72.6013L171.927 75.2884C171.168 75.5693 170.569 76.1679 170.288 76.9271L167.601 84.1889C166.708 86.6037 163.292 86.6037 162.399 84.1889L159.712 76.9271C159.431 76.1679 158.832 75.5693 158.073 75.2884L150.811 72.6013C148.396 71.7078 148.396 68.2922 150.811 67.3987L158.073 64.7116C158.832 64.4307 159.431 63.8321 159.712 63.0729L162.399 55.8111Z" fill="url(#paint12_radial_1826_182983)"/>
  <defs>
    <linearGradient id="paint0_linear_1826_182983" x1="47.8346" y1="81.2524" x2="36.2533" y2="74.644" gradientUnits="userSpaceOnUse">
      <stop stop-color="#CBA3FF"/>
      <stop offset="1" stop-color="#FF7DA4"/>
    </linearGradient>
    <linearGradient id="paint1_linear_1826_182983" x1="75.3447" y1="67.4504" x2="103.573" y2="47.0633" gradientUnits="userSpaceOnUse">
      <stop stop-color="#F2B005"/>
      <stop offset="0.703125" stop-color="#FFCC18"/>
    </linearGradient>
    <radialGradient id="paint2_radial_1826_182983" cx="0" cy="0" r="1" gradientUnits="userSpaceOnUse" gradientTransform="translate(124.253 85.6118) rotate(-134.008) scale(25.2508 25.7031)">
      <stop offset="0.564001" stop-color="white"/>
      <stop offset="1" stop-color="#FFE64D" stop-opacity="0"/>
    </radialGradient>
    <radialGradient id="paint3_radial_1826_182983" cx="0" cy="0" r="1" gradientUnits="userSpaceOnUse" gradientTransform="translate(68.8479 31.9753) rotate(46.0238) scale(29.6833 32.34)">
      <stop offset="0.343005" stop-color="#E7BD54"/>
      <stop offset="1" stop-color="#ECBE17" stop-opacity="0"/>
    </radialGradient>
    <radialGradient id="paint4_radial_1826_182983" cx="0" cy="0" r="1" gradientUnits="userSpaceOnUse" gradientTransform="translate(72.0897 85.6118) rotate(-43.8392) scale(32.8523 30.0028)">
      <stop offset="0.432259" stop-color="#EAA452"/>
      <stop offset="1" stop-color="#FFB038" stop-opacity="0"/>
    </radialGradient>
    <radialGradient id="paint5_radial_1826_182983" cx="0" cy="0" r="1" gradientUnits="userSpaceOnUse" gradientTransform="translate(103 44.5) rotate(-115.017) scale(16.5529 5.74989)">
      <stop stop-color="#FCFF71" stop-opacity="0.4"/>
      <stop offset="1" stop-color="#FCFF7B" stop-opacity="0"/>
    </radialGradient>
    <radialGradient id="paint6_radial_1826_182983" cx="0" cy="0" r="1" gradientUnits="userSpaceOnUse" gradientTransform="translate(111 52) rotate(19.9831) scale(17.5571 7.64689)">
      <stop stop-color="#FFF967" stop-opacity="0.5"/>
      <stop offset="1" stop-color="#FFF96A" stop-opacity="0"/>
    </radialGradient>
    <linearGradient id="paint7_linear_1826_182983" x1="154.809" y1="74.4473" x2="168.093" y2="64.8533" gradientUnits="userSpaceOnUse">
      <stop stop-color="#F2B005"/>
      <stop offset="0.703125" stop-color="#FFD439"/>
    </linearGradient>
    <radialGradient id="paint8_radial_1826_182983" cx="0" cy="0" r="1" gradientUnits="userSpaceOnUse" gradientTransform="translate(177.825 82.9938) rotate(-134.008) scale(11.8827 12.0956)">
      <stop offset="0.564001" stop-color="white"/>
      <stop offset="1" stop-color="#FFE64D" stop-opacity="0"/>
    </radialGradient>
    <radialGradient id="paint9_radial_1826_182983" cx="0" cy="0" r="1" gradientUnits="userSpaceOnUse" gradientTransform="translate(151.752 57.7531) rotate(46.0238) scale(13.9686 15.2188)">
      <stop offset="0.343005" stop-color="#DEB64E"/>
      <stop offset="1" stop-color="#ECBE17" stop-opacity="0"/>
    </radialGradient>
    <radialGradient id="paint10_radial_1826_182983" cx="0" cy="0" r="1" gradientUnits="userSpaceOnUse" gradientTransform="translate(153.278 82.9938) rotate(-43.8392) scale(15.4599 14.119)">
      <stop offset="0.432259" stop-color="#ECA654"/>
      <stop offset="1" stop-color="#FFB038" stop-opacity="0"/>
    </radialGradient>
    <radialGradient id="paint11_radial_1826_182983" cx="0" cy="0" r="1" gradientUnits="userSpaceOnUse" gradientTransform="translate(167.824 63.6471) rotate(-115.017) scale(7.78962 3.94321)">
      <stop stop-color="#FCFF71" stop-opacity="0.4"/>
      <stop offset="1" stop-color="#FCFF7B" stop-opacity="0"/>
    </radialGradient>
    <radialGradient id="paint12_radial_1826_182983" cx="0" cy="0" r="1" gradientUnits="userSpaceOnUse" gradientTransform="translate(171.588 67.1765) rotate(20.7723) scale(7.29791 3.08584)">
      <stop stop-color="#FFF967" stop-opacity="0.4"/>
      <stop offset="1" stop-color="#FFF96A" stop-opacity="0"/>
    </radialGradient>
  </defs>
</svg>
